<svg xmlns="http://www.w3.org/2000/svg" viewBox="0 0 1200 420" role="img" aria-label="Eight-phase Azure MLOps lifecycle">
  <rect width="1200" height="420" fill="#f8fbff"/><text x="55" y="58" fill="#123a63" font-family="Segoe UI, sans-serif" font-size="30" font-weight="700">Azure MLOps: Eight-Phase Lifecycle</text>
  <g font-family="Segoe UI, sans-serif" font-size="16" font-weight="700" text-anchor="middle"><g fill="#edf5ff" stroke="#1f6feb" stroke-width="2"><rect x="50" y="115" width="230" height="65" rx="8"/><rect x="335" y="115" width="230" height="65" rx="8"/><rect x="620" y="115" width="230" height="65" rx="8"/><rect x="905" y="115" width="230" height="65" rx="8"/></g><g fill="#eff9f8" stroke="#087f73" stroke-width="2"><rect x="50" y="250" width="230" height="65" rx="8"/><rect x="335" y="250" width="230" height="65" rx="8"/><rect x="620" y="250" width="230" height="65" rx="8"/><rect x="905" y="250" width="230" height="65" rx="8"/></g><g fill="#123a63"><text x="165" y="154">1. Frame</text><text x="450" y="154">2. Prepare data</text><text x="735" y="154">3. Experiment</text><text x="1020" y="154">4. Train</text><text x="165" y="289">5. Validate</text><text x="450" y="289">6. Deploy</text><text x="735" y="289">7. Monitor</text><text x="1020" y="289">8. Improve</text></g></g>
  <path d="M280 147h50m235 0h50m235 0h50M1020 180v45M905 282h-55m-285 0h-55m-285 0h-55M165 250v-45" fill="none" stroke="#5b7083" stroke-width="3"/>
  <text x="600" y="370" text-anchor="middle" fill="#315d63" font-family="Segoe UI, sans-serif" font-size="18">Data, code, environment, evaluation and deployment lineage must remain connected.</text>
</svg>