<svg xmlns="http://www.w3.org/2000/svg" viewBox="0 0 1200 300" role="img" aria-label="Shared AI operations lifecycle">
  <rect width="1200" height="300" fill="#f8fbff"/><text x="55" y="55" fill="#123a63" font-family="Segoe UI, sans-serif" font-size="30" font-weight="700">Shared AI Operations Lifecycle</text>
  <g font-family="Segoe UI, sans-serif" font-size="17" font-weight="700" text-anchor="middle"><g fill="#edf5ff" stroke="#1f6feb" stroke-width="2"><rect x="50" y="130" width="145" height="65" rx="8"/><rect x="240" y="130" width="145" height="65" rx="8"/><rect x="430" y="130" width="145" height="65" rx="8"/><rect x="620" y="130" width="145" height="65" rx="8"/><rect x="810" y="130" width="145" height="65" rx="8"/><rect x="1000" y="130" width="145" height="65" rx="8"/></g><g fill="#123a63"><text x="122" y="168">Frame</text><text x="312" y="168">Build</text><text x="502" y="168">Evaluate</text><text x="692" y="168">Release</text><text x="882" y="168">Operate</text><text x="1072" y="168">Improve</text></g></g>
  <g stroke="#5b7083" stroke-width="3" fill="none"><path d="M195 162h40m150 0h40m150 0h40m150 0h40m150 0h40"/></g><g fill="#5b7083"><path d="m225 156 12 6-12 6zm190 0 12 6-12 6zm190 0 12 6-12 6zm190 0 12 6-12 6zm190 0 12 6-12 6z"/></g>
  <text x="600" y="250" text-anchor="middle" fill="#315d63" font-family="Segoe UI, sans-serif" font-size="19">Versioned artifacts and accountable decisions connect every stage.</text>
</svg>