<svg xmlns="http://www.w3.org/2000/svg" viewBox="0 0 1200 340" role="img" aria-label="LLM application evaluation loop">
  <rect width="1200" height="340" fill="#f8fbff"/><text x="55" y="55" fill="#123a63" font-family="Segoe UI, sans-serif" font-size="30" font-weight="700">LLM Application Evaluation Loop</text>
  <g font-family="Segoe UI, sans-serif" font-size="18" font-weight="700" text-anchor="middle"><g fill="#f5f0fc" stroke="#7048b8" stroke-width="2"><rect x="50" y="140" width="185" height="65" rx="8"/><rect x="290" y="140" width="185" height="65" rx="8"/><rect x="530" y="140" width="185" height="65" rx="8"/><rect x="770" y="140" width="185" height="65" rx="8"/><rect x="1010" y="140" width="145" height="65" rx="8"/></g><g fill="#593b87"><text x="142" y="180">Version candidate</text><text x="382" y="180">Evaluate scenarios</text><text x="622" y="180">Release safely</text><text x="862" y="180">Observe outcomes</text><text x="1082" y="180">Improve</text></g></g>
  <g stroke="#5b7083" stroke-width="3" fill="none"><path d="M235 172h50m190 0h50m190 0h50m190 0h50"/></g><g fill="#5b7083"><path d="m275 166 12 6-12 6zm240 0 12 6-12 6zm240 0 12 6-12 6zm240 0 12 6-12 6z"/></g>
  <text x="600" y="270" text-anchor="middle" fill="#315d63" font-family="Segoe UI, sans-serif" font-size="18">Assess task quality, grounding, safety, tool behavior, latency and cost together.</text>
</svg>