<svg xmlns="http://www.w3.org/2000/svg" viewBox="0 0 1200 420" role="img" aria-label="Eight-phase Azure MLOps lifecycle">
  <defs>
    <marker id="phase-arrow" viewBox="0 0 10 10" refX="8" refY="5" markerWidth="6" markerHeight="6" orient="auto-start-reverse">
      <path d="M 0 0 L 10 5 L 0 10 z" fill="#5b7083"/>
    </marker>
  </defs>
  <rect width="1200" height="420" fill="#f8fbff"/><text x="55" y="58" fill="#123a63" font-family="Segoe UI, sans-serif" font-size="30" font-weight="700">Azure MLOps: Eight-Phase Lifecycle</text>
  <g font-family="Segoe UI, sans-serif" font-size="16" font-weight="700" text-anchor="middle"><g fill="#edf5ff" stroke="#1f6feb" stroke-width="2"><rect x="50" y="115" width="230" height="65" rx="8"/><rect x="335" y="115" width="230" height="65" rx="8"/><rect x="620" y="115" width="230" height="65" rx="8"/><rect x="905" y="115" width="230" height="65" rx="8"/></g><g fill="#eff9f8" stroke="#087f73" stroke-width="2"><rect x="50" y="250" width="230" height="65" rx="8"/><rect x="335" y="250" width="230" height="65" rx="8"/><rect x="620" y="250" width="230" height="65" rx="8"/><rect x="905" y="250" width="230" height="65" rx="8"/></g><g fill="#123a63"><text x="165" y="154">1. Frame</text><text x="450" y="154">2. Prepare data</text><text x="735" y="154">3. Experiment</text><text x="1020" y="154">4. Train</text><text x="165" y="289">5. Validate</text><text x="450" y="289">6. Deploy</text><text x="735" y="289">7. Monitor</text><text x="1020" y="289">8. Improve</text></g></g>
  <g fill="none" stroke="#5b7083" stroke-width="3" marker-end="url(#phase-arrow)">
    <path d="M280 147H327"/>
    <path d="M565 147H612"/>
    <path d="M850 147H897"/>
    <path d="M1020 180V242"/>
    <path d="M905 282H858"/>
    <path d="M620 282H573"/>
    <path d="M335 282H288"/>
    <path d="M165 250V188"/>
  </g>
  <text x="600" y="370" text-anchor="middle" fill="#315d63" font-family="Segoe UI, sans-serif" font-size="18">Data, code, environment, evaluation and deployment lineage must remain connected.</text>
</svg>